<?xml version="1.0" encoding="UTF-8" standalone="no"?>
<svg
   xmlns:dc="http://purl.org/dc/elements/1.1/"
   xmlns:cc="http://creativecommons.org/ns#"
   xmlns:rdf="http://www.w3.org/1999/02/22-rdf-syntax-ns#"
   xmlns:svg="http://www.w3.org/2000/svg"
   xmlns="http://www.w3.org/2000/svg"
   xmlns:sodipodi="http://sodipodi.sourceforge.net/DTD/sodipodi-0.dtd"
   xmlns:inkscape="http://www.inkscape.org/namespaces/inkscape"
   id="Layer_1"
   data-name="Layer 1"
   viewBox="0 0 440 110"
   version="1.1"
   sodipodi:docname="fieldkit-logo-blue.svg"
   inkscape:version="0.92.2 5c3e80d, 2017-08-06">
  <metadata
     id="metadata11">
    <rdf:RDF>
      <cc:Work
         rdf:about="">
        <dc:format>image/svg+xml</dc:format>
        <dc:type
           rdf:resource="http://purl.org/dc/dcmitype/StillImage" />
        <dc:title>fieldkit-logo-black</dc:title>
      </cc:Work>
    </rdf:RDF>
  </metadata>
  <defs
     id="defs9" />
  <sodipodi:namedview
     pagecolor="#ffffff"
     bordercolor="#666666"
     borderopacity="1"
     objecttolerance="10"
     gridtolerance="10"
     guidetolerance="10"
     inkscape:pageopacity="0"
     inkscape:pageshadow="2"
     inkscape:window-width="945"
     inkscape:window-height="613"
     id="namedview7"
     showgrid="false"
     inkscape:zoom="0.73636364"
     inkscape:cx="220"
     inkscape:cy="55"
     inkscape:window-x="0"
     inkscape:window-y="0"
     inkscape:window-maximized="0"
     inkscape:current-layer="Layer_1" />
  <title
     id="title2">fieldkit-logo-black</title>
  <path
     d="M30.7,17.1C27,20.8,25,26.1,25,33.3v1.3H18v17h7v45H47v-45H61v-16H47V33.5c0-4,2-5.9,6-5.9a22.67,22.67,0,0,1,8,1.3V13.4c-3-1-7.5-1.7-14.2-1.7C39.4,11.7,34.5,13.3,30.7,17.1ZM70,96.6H92v-62H70Zm-1-68H92v-16H69Zm62.9,4.3c-18.5,0-31.9,14.5-31.9,32.7v.2c0,19.4,14.2,32.5,33.8,32.5,12.5,0,21.3-5.1,27.3-12.7l-12-10.1c-4.5,4.4-8.6,6.3-13.8,6.3-6.8,0-11.7-3.3-13.5-10.3h41.8c.1-1-.1-3.1-.1-4.5C163.6,48.7,153.5,32.9,131.9,32.9ZM121.5,60.6c1.2-7,5.1-11.3,10.9-11.3,6,0,10.1,4.3,10.9,11.3Zm48.5,36h22v-84H170Zm24.7-62.8s3.9,5.4,8.7,12.3a30.72,30.72,0,0,1,4.3-5.6ZM245,41.9c-4-4.7-9.6-9-19.1-9a25.49,25.49,0,0,0-18.2,7.6l32.4,16.8L267,96.8V12.6H245Zm-41.8,4.2A37.86,37.86,0,0,0,198,65.6v.2c0,20,13,32.4,27.8,32.4,9.4,0,14.2-4.5,19.2-9.7v8.1h22.2l-44-21.5C223.6,74.8,211.7,58.3,203.2,46.1ZM341.6,34.6H316.8L299,55.2V12.6H277v84h22V82.1l6-6.7,13,21.1h24.2L319.9,59.4Zm4.4,62h22v-62H346Zm0-68h23v-16H346Zm76,24v-18H407v-16H385v16h-7v18h7V77.4c0,14.9,8.2,20.7,21.4,20.7A33,33,0,0,0,422,94.5V77.3a21.74,21.74,0,0,1-8.7,2.1c-4,0-6.3-1.8-6.3-6.2V52.6ZM232.1,59.3a7.1,7.1,0,1,0,7,7.1A7.11,7.11,0,0,0,232.1,59.3Z"
     id="path4"
     style="fill:#1b80c9;fill-opacity:1" />
</svg>
