<?xml version="1.0" encoding="UTF-8"?>
<svg width="17px" height="26px" viewBox="0 0 17 26" version="1.1" xmlns="http://www.w3.org/2000/svg" xmlns:xlink="http://www.w3.org/1999/xlink">
    <!-- Generator: Sketch 59 (86127) - https://sketch.com -->
    <title>icon_connected</title>
    <desc>Created with Sketch.</desc>
    <g id="UI_Stations" stroke="none" stroke-width="1" fill="none" fill-rule="evenodd">
        <g id="01_UI_Mobile_Stations" transform="translate(-305.000000, -296.000000)" fill="#1B80C9" fill-rule="nonzero">
            <g id="icon_connected" transform="translate(305.000000, 296.000000)">
                <path d="M19.2846939,5 L-2.47015306,5 C-3.31479592,5 -4,5.82244898 -4,6.83520408 L-4,19.2293367 C-4,20.2433673 -3.31479592,21.0642857 -2.47015306,21.0642857 L19.2846939,21.0642857 C20.1278061,21.0642857 20.8127551,20.2431122 20.8127551,19.2293367 L20.8127551,6.83520408 C20.8127551,5.82244898 20.127551,5 19.2846939,5 Z M14.5252551,17.7007653 C14.5252551,18.4635204 14.0109694,19.0834184 13.3732143,19.0834184 L-0.807908163,19.0834184 C-1.44387755,19.0834184 -1.96096939,18.4635204 -1.96096939,17.7007653 L-1.96096939,8.36377551 C-1.96096939,7.5994898 -1.44413265,6.98137755 -0.807908163,6.98137755 L13.3732143,6.98137755 C14.0109694,6.98137755 14.5252551,7.5994898 14.5252551,8.36377551 L14.5252551,17.7007653 Z M17.6788265,15.3321429 C16.6119898,15.3321429 15.7482143,14.4665816 15.7482143,13.4002551 C15.7482143,12.3339286 16.6122449,11.4696429 17.6788265,11.4696429 C18.7451531,11.4696429 19.6094388,12.3336735 19.6094388,13.4002551 C19.6094388,14.4668367 18.744898,15.3321429 17.6788265,15.3321429 Z" id="Shape" transform="translate(8.406378, 13.032143) rotate(90.000000) translate(-8.406378, -13.032143) "></path>
                <path d="M10.6328888,7.29931188 L7.44035712,11.3770176 L7.44035712,11.3770176 L6.55957222,10.8107346 C6.13818469,10.539812 5.5813531,10.622501 5.25687699,11.0041839 L5.19661834,11.0750664 C4.85174213,11.480746 4.90103301,12.0891917 5.30671259,12.4340679 C5.30769942,12.4349068 5.30868795,12.4357438 5.30967816,12.4365787 L6.98108683,13.8459109 C7.40330774,14.2019277 8.03419404,14.1482586 8.39021082,13.7260377 C8.40364281,13.7101079 8.41657363,13.6937622 8.42898434,13.6770245 L12.2464342,8.52862255 C12.5751673,8.08492925 12.4822762,7.45872942 12.0388976,7.12957199 L12.0160519,7.11262503 C11.5806203,6.78962042 10.9671071,6.87242688 10.6328888,7.29931188 Z" id="Path"></path>
            </g>
        </g>
    </g>
</svg>