<?xml version="1.0" encoding="UTF-8"?>
<svg width="15px" height="23px" viewBox="0 0 15 23" version="1.1" xmlns="http://www.w3.org/2000/svg" xmlns:xlink="http://www.w3.org/1999/xlink">
    <!-- Generator: Sketch 59 (86127) - https://sketch.com -->
    <title>Icon_memory</title>
    <desc>Created with Sketch.</desc>
    <g id="Data_Transfer" stroke="none" stroke-width="1" fill="none" fill-rule="evenodd">
        <g id="23_Mobile_DataFiles" transform="translate(-178.000000, -180.000000)" fill="#1B80C9">
            <g id="Group-8" transform="translate(178.000000, 177.000000)">
                <path d="M9,3 L15,8.76190476 L15,24 C15,25.1045695 14.1045695,26 13,26 L2,26 C0.8954305,26 1.3527075e-16,25.1045695 0,24 L0,5 C-1.3527075e-16,3.8954305 0.8954305,3 2,3 L9,3 Z M12.5,21.5 L2.5,21.5 C1.94771525,21.5 1.5,21.9477153 1.5,22.5 C1.5,23.0522847 1.94771525,23.5 2.5,23.5 L2.5,23.5 L12.5,23.5 C13.0522847,23.5 13.5,23.0522847 13.5,22.5 C13.5,21.9477153 13.0522847,21.5 12.5,21.5 L12.5,21.5 Z M3,7 C2.44771525,7 2,7.44771525 2,8 L2,8 L2,11 C2,11.5522847 2.44771525,12 3,12 C3.55228475,12 4,11.5522847 4,11 L4,11 L4,8 C4,7.44771525 3.55228475,7 3,7 Z M6,7 C5.44771525,7 5,7.44771525 5,8 L5,8 L5,11 C5,11.5522847 5.44771525,12 6,12 C6.55228475,12 7,11.5522847 7,11 L7,11 L7,8 C7,7.44771525 6.55228475,7 6,7 Z M9,7 C8.44771525,7 8,7.44771525 8,8 L8,8 L8,11 C8,11.5522847 8.44771525,12 9,12 C9.55228475,12 10,11.5522847 10,11 L10,11 L10,8 C10,7.44771525 9.55228475,7 9,7 Z" id="Icon_memory"></path>
            </g>
        </g>
    </g>
</svg>