<svg xmlns="http://www.w3.org/2000/svg" width="142" height="90" viewBox="0 0 142 90">
    <g fill="none" fill-rule="evenodd">
        <g fill="#1B80C9">
            <g>
                <g>
                    <path d="M45 0c24.853 0 45 20.147 45 45 0 .722-.017 1.44-.05 2.155C81.256 50.093 75 58.315 75 68c0 3.131.654 6.11 1.833 8.806C68.69 84.957 57.433 90 45 90c-11.428 0-21.861-4.26-29.798-11.279C16.36 76.048 17 73.1 17 70 17 59.62 9.813 50.92.143 48.604.048 47.416 0 46.214 0 45 0 20.147 20.147 0 45 0zm21.449 24c-.209 0-.42.02-.629.058L46.917 27.54c-.709.13-2.125.131-2.834 0L25.18 24.058c-.209-.038-.42-.058-.629-.058-1.792 0-3.195 1.424-3.195 3.242v3.589C19.979 31.398 19 32.775 19 34.309v28.855c0 .904.342 1.746.963 2.37.715.718 1.706 1.072 2.767.942l21.225-2.527c.787-.093 2.303-.093 3.09 0l21.226 2.527c.14.017.279.025.415.025 1.858 0 3.314-1.465 3.314-3.337V34.31c0-1.535-.98-2.91-2.356-3.478v-3.59c0-1.817-1.403-3.241-3.195-3.241zM22.533 58.827c.546.549 1.235.952 2.007 1.095l9.17 1.689-11.177 1.33v-4.114zm45.934 0v4.114l-11.177-1.33 9.172-1.69c.77-.142 1.46-.546 2.005-1.094zm-43.578-31.23l18.553 3.418c.09.016.192.03.291.043v28.806L25.18 56.447c-.117-.022-.291-.23-.291-.35v-28.5zm41.222-.001v28.501c0 .12-.174.328-.29.35l-18.554 3.417V31.058c.099-.014.2-.027.29-.043l18.554-3.42zM27.273 49.207c-.174.96.463 1.88 1.423 2.053l6.796 1.231c.107.019.213.029.317.029.838 0 1.582-.599 1.737-1.453.174-.96-.464-1.879-1.423-2.053l-6.797-1.23c-.965-.173-1.88.463-2.053 1.423zm30.869-1.424l-6.797 1.231c-.96.174-1.597 1.093-1.424 2.053.155.854.898 1.453 1.736 1.453.105 0 .21-.01.317-.029l6.797-1.23c.96-.174 1.597-1.094 1.424-2.054-.174-.96-1.096-1.594-2.053-1.424zm-30.87-5.634c-.17.961.472 1.877 1.433 2.046l10.601 1.864c.103.018.206.027.307.027.842 0 1.588-.603 1.738-1.46.17-.961-.473-1.877-1.433-2.047l-10.6-1.864c-.962-.169-1.878.473-2.046 1.434zm34.41-9.09l-10.6 1.865c-.844.149-1.46.882-1.46 1.74v7.656c0 .522.232 1.017.63 1.353.321.269.725.413 1.137.413.102 0 .204-.009.306-.026l10.6-1.865c.845-.148 1.46-.882 1.46-1.74V34.8c0-.523-.23-1.018-.63-1.354-.4-.335-.928-.475-1.442-.387zm-1.46 3.845v4.068l-7.066 1.243v-4.068l7.066-1.243zm-32.95-1.822c-.17.96.472 1.877 1.433 2.046l10.601 1.865c.103.018.206.027.307.027.842 0 1.588-.604 1.738-1.461.17-.96-.473-1.877-1.433-2.046l-10.6-1.865c-.962-.169-1.878.473-2.046 1.434z" transform="translate(-118.000000, -121.000000) translate(118.000000, 121.000000) translate(25.000000, 0.000000)"/>
                </g>
                <path d="M122 48c11.046 0 20 8.954 20 20s-8.954 20-20 20-20-8.954-20-20 8.954-20 20-20zm-2.42 26.767c-.535.439-.831.993-.89 1.663-.03.335.011.655.122.96.11.305.272.573.484.802.212.23.464.42.757.573.292.152.606.243.941.272.691.06 1.304-.128 1.838-.567.534-.439.83-.993.89-1.663.058-.67-.144-1.258-.606-1.762-.462-.505-1.028-.787-1.699-.845-.69-.06-1.303.128-1.838.567zm.97-18.51c-.862.209-1.637.558-2.323 1.046-.686.489-1.263 1.108-1.73 1.859-.408.657-.72 1.407-.934 2.25l-.086.367 3.994.666c.158-.851.547-1.55 1.164-2.098.618-.547 1.366-.783 2.246-.706.817.072 1.47.387 1.959.947.489.56.698 1.248.626 2.065-.066.761-.338 1.374-.815 1.838l-.149.135-2.633 2.238c-.343.308-.635.573-.876.794-.241.222-.441.457-.6.707-.16.25-.28.535-.36.855-.065.256-.116.557-.155.903l-.027.268-.15 1.728 3.769.33.104-1.194c.035-.398.096-.735.184-1.013.087-.277.209-.52.364-.727.155-.208.347-.408.575-.6.227-.19.5-.409.817-.656.499-.399.97-.78 1.413-1.142.443-.362.841-.75 1.194-1.162.352-.412.646-.872.88-1.379.234-.507.382-1.106.442-1.797.086-.984-.005-1.873-.273-2.667-.268-.793-.678-1.473-1.23-2.038-.552-.565-1.22-1.02-2.002-1.362-.782-.343-1.644-.555-2.587-.638-1.005-.088-1.939-.027-2.801.182zM20 50c11.046 0 20 8.954 20 20s-8.954 20-20 20S0 81.046 0 70s8.954-20 20-20zm.33 25.777c-.657.057-1.2.336-1.628.835-.428.5-.614 1.068-.558 1.705.028.319.119.612.273.88.153.267.349.491.585.671.237.18.505.317.804.412.3.094.609.127.927.1.658-.058 1.2-.337 1.629-.836.428-.5.614-1.067.558-1.705-.055-.638-.342-1.155-.858-1.551-.517-.397-1.094-.567-1.731-.511zm1.326-16.98l-5.579.488 2.267 14.437 3.586-.314-.274-14.611z" transform="translate(-118.000000, -121.000000) translate(118.000000, 121.000000)"/>
            </g>
        </g>
    </g>
</svg>
