<svg xmlns="http://www.w3.org/2000/svg" width="20" height="20" viewBox="0 0 20 20">
    <path fill="#9A9FA6" fill-rule="evenodd" d="M0 10.014C0 4.488 4.488 0 10.014 0 15.54 0 20 4.488 20 10.014 20 15.54 15.54 20 10.014 20 4.488 20 0 15.54 0 10.014zm8.359-1.599L6.844 6.928c-.112-.14-.308-.224-.505-.224-.196 0-.392.084-.504.224L4.32 8.415c-.112.14-.197.309-.197.505 0 .393.309.73.702.73h.813v2.945c0 1.963 1.599 3.562 3.563 3.562h1.598c.393 0 .73-.308.73-.701 0-.393-.337-.73-.73-.73H9.201c-1.179 0-2.132-.953-2.132-2.131V9.649h.785c.196 0 .365-.084.505-.224.28-.28.28-.73 0-1.01zm.842-3.142c-.393 0-.73-.336-.73-.729 0-.393.337-.701.73-.701h1.598c1.964 0 3.59 1.599 3.59 3.562v2.946h.786c.393 0 .73.336.73.729 0 .196-.085.393-.225.505L14.165 13.1c-.112.14-.308.196-.504.196-.197 0-.365-.056-.505-.196l-1.515-1.515c-.28-.28-.28-.73 0-1.01.14-.14.337-.224.505-.224h.813V7.405c0-1.178-.981-2.132-2.16-2.132H9.201z"/>
</svg>
