<svg xmlns="http://www.w3.org/2000/svg" width="20" height="22" viewBox="0 0 20 22">
    <g fill="#2C3E50" fill-rule="evenodd" transform="matrix(1 0 0 -1 0 22)">
        <path d="M11.667 9.455h2.322c.276 0 .5.223.5.5 0 .11-.036.216-.103.303l-3.989 5.222c-.167.22-.481.261-.7.094-.036-.027-.067-.059-.094-.094l-3.99-5.222c-.167-.22-.125-.533.095-.7.087-.067.193-.103.303-.103h2.322V.5c0-.276.224-.5.5-.5h2.334c.276 0 .5.224.5.5v8.955z"/>
        <rect width="20" height="3.5" y="18.333" rx="1"/>
    </g>
</svg>
