<svg xmlns="http://www.w3.org/2000/svg" width="20" height="20" viewBox="0 0 20 20">
    <g fill="none" fill-rule="evenodd">
        <g fill="#2C3E50" fill-rule="nonzero">
            <path d="M32 507c5.48 0 10 4.476 10 9.972C42 522.524 37.48 527 32 527s-10-4.476-10-9.972C22 511.476 26.52 507 32 507zm1.636 4.58c-.5-.136-1 .137-1.136.637l-2.545 9.045c-.137.5.136 1 .636 1.137.09.045.182.045.227.045.41 0 .773-.273.864-.682l2.545-9.045c.137-.5-.136-1-.59-1.137zm3.319 2.41c-.364-.364-.91-.364-1.273 0-.364.363-.364.909 0 1.272l1.682 1.728-1.682 1.681c-.364.364-.364.91 0 1.273.182.182.409.273.636.273.227 0 .455-.091.637-.273l2.318-2.318c.363-.364.363-.91 0-1.273zm-8.819 0c-.363-.364-.909-.364-1.272 0l-2.319 2.318c-.363.363-.363.909 0 1.272l2.319 2.319c.181.181.409.272.636.272.227 0 .455-.09.636-.272.364-.364.364-.91 0-1.273l-1.681-1.636 1.681-1.682c.364-.364.364-.955 0-1.318z" transform="translate(-22 -507)"/>
        </g>
    </g>
</svg>
