<svg xmlns="http://www.w3.org/2000/svg" width="20" height="20" viewBox="0 0 20 20">
    <g fill="#1B80C9">
        <path d="M14 0H2c-.6 0-1 .4-1 1v2c-.6 0-1 .4-1 1s.4 1 1 1v10c-.6 0-1 .4-1 1s.4 1 1 1v2c0 .6.4 1 1 1h12c.6 0 1-.4 1-1V1c0-.6-.4-1-1-1zM8 13H4c-.6 0-1-.4-1-1s.4-1 1-1h4c.6 0 1 .4 1 1s-.4 1-1 1zm4-4H4c-.6 0-1-.4-1-1s.4-1 1-1h8c.6 0 1 .4 1 1s-.4 1-1 1zm0-4H4c-.6 0-1-.4-1-1s.4-1 1-1h8c.6 0 1 .4 1 1s-.4 1-1 1zM19 0h-1c-.6 0-1 .4-1 1v14h3V1c0-.6-.4-1-1-1zM18.5 20L20 17 17 17z"/>
    </g>
</svg>
