<?xml version="1.0" encoding="UTF-8" standalone="no"?>
<svg
   xmlns:dc="http://purl.org/dc/elements/1.1/"
   xmlns:cc="http://creativecommons.org/ns#"
   xmlns:rdf="http://www.w3.org/1999/02/22-rdf-syntax-ns#"
   xmlns:svg="http://www.w3.org/2000/svg"
   xmlns="http://www.w3.org/2000/svg"
   xmlns:sodipodi="http://sodipodi.sourceforge.net/DTD/sodipodi-0.dtd"
   xmlns:inkscape="http://www.inkscape.org/namespaces/inkscape"
   width="19px"
   height="20px"
   viewBox="0 0 19 20"
   version="1.1"
   id="svg13"
   sodipodi:docname="Icon_Settings_inactive.svg"
   inkscape:export-filename="/Users/computer/Fieldkit/design/01_SVG/Icon_Settings_inactive.png"
   inkscape:export-xdpi="1625.6"
   inkscape:export-ydpi="1625.6"
   inkscape:version="0.92.2 5c3e80d, 2017-08-06">
  <metadata
     id="metadata19">
    <rdf:RDF>
      <cc:Work
         rdf:about="">
        <dc:format>image/svg+xml</dc:format>
        <dc:type
           rdf:resource="http://purl.org/dc/dcmitype/StillImage" />
      </cc:Work>
    </rdf:RDF>
  </metadata>
  <defs
     id="defs17" />
  <sodipodi:namedview
     pagecolor="#ffffff"
     bordercolor="#666666"
     borderopacity="1"
     objecttolerance="10"
     gridtolerance="10"
     guidetolerance="10"
     inkscape:pageopacity="0"
     inkscape:pageshadow="2"
     inkscape:window-width="740"
     inkscape:window-height="480"
     id="namedview15"
     showgrid="false"
     inkscape:zoom="11.8"
     inkscape:cx="9.5"
     inkscape:cy="10"
     inkscape:window-x="0"
     inkscape:window-y="0"
     inkscape:window-maximized="0"
     inkscape:current-layer="svg13" />
  <!-- Generator: Sketch 61.2 (89653) - https://sketch.com -->
  <title
     id="title2">Icon_Settings_inactive</title>
  <desc
     id="desc4">Created with Sketch.</desc>
  <g
     id="UI_Stations"
     stroke="none"
     stroke-width="1"
     fill="none"
     fill-rule="evenodd">
    <g
       id="01_UI_Mobile_Stations"
       transform="translate(-301.000000, -595.000000)"
       fill="#9A9FA6"
       fill-rule="nonzero">
      <g
         id="StickyBottomNav"
         transform="translate(0.000000, 585.000000)">
        <g
           id="Icon_Settings_inactive"
           transform="translate(301.000000, 10.000000)">
          <path
             d="M18.6574326,16.4745725 L18.3853917,16.2880302 C18.1366686,16.1170331 18.0045345,15.829447 18.0045345,15.5340884 C18.0045345,15.5340884 18.0045345,15.5340884 18.0045345,15.5263158 C18.0045345,15.5185432 18.0045345,15.5263158 18.0045345,15.5185432 C18.0045345,15.2154119 18.1366686,14.9355985 18.3853917,14.7646014 L18.6574326,14.5780591 C18.8206571,14.4692427 18.8672927,14.25161 18.7662489,14.0883855 L18.2921206,13.2722629 C18.1988494,13.1012658 17.9889893,13.0390851 17.8102196,13.1245836 L17.514861,13.2644903 C17.2505927,13.3888519 16.9474614,13.3810793 16.6987384,13.2334 C16.6831932,13.2256274 16.6598754,13.2100822 16.6443302,13.2023096 C16.3878345,13.0624028 16.22461,12.7981346 16.2012922,12.5105485 L16.1779744,12.1840995 C16.1624292,11.9897846 15.9992047,11.8421053 15.8126624,11.8421053 L14.8566331,11.8421053 C14.6623182,11.8421053 14.4990937,11.9897846 14.4913211,12.1840995 L14.4680033,12.5105485 C14.4446855,12.7981346 14.281461,13.0624028 14.0249653,13.2023096 C14.0094201,13.2100822 13.9861023,13.2256274 13.9705572,13.2334 C13.7218341,13.3810793 13.4109302,13.3888519 13.1544346,13.2644903 L12.8513033,13.116811 C12.6803062,13.0313125 12.4704461,13.1012658 12.3694024,13.2644903 L11.895274,14.0883855 C11.8020029,14.2593826 11.8486384,14.4692427 12.0040904,14.5780591 L12.2761312,14.7646014 C12.5248543,14.9355985 12.6569884,15.2231845 12.6569884,15.5185432 C12.6569884,15.5185432 12.6569884,15.5185432 12.6569884,15.5263158 C12.6569884,15.5263158 12.6569884,15.5263158 12.6569884,15.5340884 C12.6569884,15.8372196 12.5248543,16.1170331 12.2761312,16.2880302 L12.0040904,16.4745725 C11.8408658,16.5833889 11.7942303,16.8010215 11.895274,16.9642461 L12.3694024,17.7803686 C12.4626735,17.9513658 12.6725336,18.0135465 12.8513033,17.928048 L13.146662,17.7881412 C13.4109302,17.6637797 13.7140615,17.6715523 13.9627846,17.8192316 C13.9783298,17.8270042 14.0016475,17.8425494 14.0171927,17.850322 C14.2736884,17.9902287 14.4369129,18.254497 14.4602307,18.5420831 L14.4835485,18.8685321 C14.4990937,19.062847 14.6623182,19.2105263 14.8488605,19.2105263 L15.7971172,19.2105263 C15.9914321,19.2105263 16.1546566,19.062847 16.1624292,18.8685321 L16.185747,18.5420831 C16.2090648,18.254497 16.3722893,17.9902287 16.628785,17.850322 C16.6443302,17.8425494 16.667648,17.8270042 16.6831932,17.8192316 C16.9319162,17.6715523 17.2428201,17.6637797 17.4993158,17.7881412 L17.7946744,17.928048 C17.9656715,18.0135465 18.1755316,17.9435932 18.2765754,17.7803686 L18.7507037,16.9564735 C18.8595201,16.7932489 18.8128845,16.5833889 18.6574326,16.4745725 Z M15.3307615,16.9098379 C14.569047,16.9098379 13.9472394,16.2880302 13.9472394,15.5263158 C13.9472394,14.7646014 14.569047,14.1427937 15.3307615,14.1427937 C16.0924759,14.1427937 16.7142836,14.7646014 16.7142836,15.5263158 C16.7142836,16.2880302 16.0924759,16.9098379 15.3307615,16.9098379 Z"
             id="Shape" />
          <circle
             id="Oval"
             cx="7.89473684"
             cy="5.26315789"
             r="5.26315789" />
          <path
             d="M10.6473684,18.1092105 L10.4953947,17.7473684 L10.4953947,13.8 L10.6473684,13.4375 L12.9855263,11.0993421 C12.6789474,10.8394737 12.3598684,10.5947368 12.0157895,10.3835526 C10.8868421,11.2940789 9.45394737,11.8421053 7.89473684,11.8421053 C6.33552632,11.8421053 4.90263158,11.2940789 3.77434211,10.3842105 C1.51447368,11.775 0,14.2631579 0,17.1052632 L0,19.7368421 L12.2743421,19.7368421 L10.6473684,18.1092105 Z"
             id="Path" />
        </g>
      </g>
    </g>
  </g>
</svg>
