<?xml version="1.0" encoding="UTF-8"?>
<svg width="28px" height="28px" viewBox="0 0 28 28" version="1.1" xmlns="http://www.w3.org/2000/svg" xmlns:xlink="http://www.w3.org/1999/xlink">
    <!-- Generator: Sketch 59 (86127) - https://sketch.com -->
    <title>Icon_DataSync_inactive</title>
    <desc>Created with Sketch.</desc>
    <defs>
        <filter x="-5.0%" y="-29.1%" width="110.0%" height="158.2%" filterUnits="objectBoundingBox" id="filter-1">
            <feOffset dx="0" dy="2" in="SourceAlpha" result="shadowOffsetOuter1"></feOffset>
            <feGaussianBlur stdDeviation="2" in="shadowOffsetOuter1" result="shadowBlurOuter1"></feGaussianBlur>
            <feColorMatrix values="0 0 0 0 0   0 0 0 0 0   0 0 0 0 0  0 0 0 0.5 0" type="matrix" in="shadowBlurOuter1" result="shadowMatrixOuter1"></feColorMatrix>
            <feMerge>
                <feMergeNode in="shadowMatrixOuter1"></feMergeNode>
                <feMergeNode in="SourceGraphic"></feMergeNode>
            </feMerge>
        </filter>
    </defs>
    <g id="Deploy" stroke="none" stroke-width="1" fill="none" fill-rule="evenodd">
        <g id="1_Mobile_Deploy" transform="translate(-145.000000, -505.000000)" fill="#6A6D71">
            <g id="StickyBottomNav" filter="url(#filter-1)" transform="translate(0.000000, 497.000000)">
                <path d="M149,20.0140252 C149,14.4880785 153.488079,10 159.014025,10 C164.539972,10 169,14.4880785 169,20.0140252 C169,25.5399719 164.539972,30 159.014025,30 C153.488079,30 149,25.5399719 149,20.0140252 Z M157.359046,18.4151473 L155.84432,16.9284712 C155.732118,16.7882188 155.535764,16.7040673 155.339411,16.7040673 C155.143058,16.7040673 154.946704,16.7882188 154.834502,16.9284712 L153.319776,18.4151473 C153.207574,18.5553997 153.123422,18.7237027 153.123422,18.9200561 C153.123422,19.312763 153.431978,19.6493689 153.824684,19.6493689 L154.638149,19.6493689 L154.638149,22.5946704 C154.638149,24.5582048 156.237027,26.1570827 158.200561,26.1570827 L159.799439,26.1570827 C160.192146,26.1570827 160.528752,25.8485273 160.528752,25.4558205 C160.528752,25.0631136 160.192146,24.7265077 159.799439,24.7265077 L158.200561,24.7265077 C157.02244,24.7265077 156.068724,23.772791 156.068724,22.5946704 L156.068724,19.6493689 L156.854137,19.6493689 C157.050491,19.6493689 157.218794,19.5652174 157.359046,19.4249649 C157.639551,19.14446 157.639551,18.6956522 157.359046,18.4151473 Z M158.200561,15.2734923 C157.807854,15.2734923 157.471248,14.9368864 157.471248,14.5441795 C157.471248,14.1514727 157.807854,13.8429173 158.200561,13.8429173 L159.799439,13.8429173 C161.762973,13.8429173 163.389902,15.4417952 163.389902,17.4053296 L163.389902,20.3506311 L164.175316,20.3506311 C164.568022,20.3506311 164.904628,20.687237 164.904628,21.0799439 C164.904628,21.2762973 164.820477,21.4726508 164.680224,21.5848527 L163.165498,23.0995792 C163.053296,23.2398317 162.856942,23.2959327 162.660589,23.2959327 C162.464236,23.2959327 162.295933,23.2398317 162.15568,23.0995792 L160.640954,21.5848527 C160.360449,21.3043478 160.360449,20.85554 160.640954,20.5750351 C160.781206,20.4347826 160.97756,20.3506311 161.145863,20.3506311 L161.959327,20.3506311 L161.959327,17.4053296 C161.959327,16.227209 160.97756,15.2734923 159.799439,15.2734923 L158.200561,15.2734923 Z" id="Icon_DataSync_inactive"></path>
            </g>
        </g>
    </g>
</svg>