<?xml version="1.0" encoding="UTF-8"?>
<svg width="18px" height="20px" viewBox="0 0 18 20" version="1.1" xmlns="http://www.w3.org/2000/svg" xmlns:xlink="http://www.w3.org/1999/xlink">
    <!-- Generator: Sketch 59 (86127) - https://sketch.com -->
    <title>Icon_Station_active</title>
    <desc>Created with Sketch.</desc>
    <g id="UI_Stations" stroke="none" stroke-width="1" fill="none" fill-rule="evenodd">
        <g id="01_UI_Mobile_Stations" transform="translate(-43.000000, -595.000000)" fill="#515151">
            <g id="StickyBottomNav" transform="translate(0.000000, 585.000000)">
                <path d="M60,10 C60.5522847,10 61,10.4477153 61,11 L61,29 C61,29.5522847 60.5522847,30 60,30 L44,30 C43.4477153,30 43,29.5522847 43,29 L43,11 C43,10.4477153 43.4477153,10 44,10 L60,10 Z M47,16 L50.6,22.75 L57.1052632,25 L53.75,19.15 L47,16 Z M52.4,20.05 C52.8970563,20.05 53.3,20.4529437 53.3,20.95 C53.3,21.4470563 52.8970563,21.85 52.4,21.85 C51.9029437,21.85 51.5,21.4470563 51.5,20.95 C51.5,20.4529437 51.9029437,20.05 52.4,20.05 Z" id="Icon_Station_active"></path>
            </g>
        </g>
    </g>
</svg>