<?xml version="1.0" encoding="UTF-8"?>
<svg width="18px" height="20px" viewBox="0 0 18 20" version="1.1" xmlns="http://www.w3.org/2000/svg" xmlns:xlink="http://www.w3.org/1999/xlink">
    <!-- Generator: Sketch 59 (86127) - https://sketch.com -->
    <title>Icon_Station_inactive</title>
    <desc>Created with Sketch.</desc>
    <g id="UI_Stations" stroke="none" stroke-width="1" fill="none" fill-rule="evenodd">
        <path d="M17,0 C17.5522847,-1.01453063e-16 18,0.44771525 18,1 L18,19 C18,19.5522847 17.5522847,20 17,20 L1,20 C0.44771525,20 6.76353751e-17,19.5522847 0,19 L0,1 C-6.76353751e-17,0.44771525 0.44771525,1.01453063e-16 1,0 L17,0 Z M4,6 L7.6,12.75 L14.1052632,15 L10.75,9.15 L4,6 Z M9.4,10.05 C9.89705627,10.05 10.3,10.4529437 10.3,10.95 C10.3,11.4470563 9.89705627,11.85 9.4,11.85 C8.90294373,11.85 8.5,11.4470563 8.5,10.95 C8.5,10.4529437 8.90294373,10.05 9.4,10.05 Z" id="Icon_Station_inactive" fill="#6A6D71"></path>
    </g>
</svg>