<?xml version="1.0" encoding="UTF-8"?>
<svg width="20px" height="20px" viewBox="0 0 20 20" version="1.1" xmlns="http://www.w3.org/2000/svg" xmlns:xlink="http://www.w3.org/1999/xlink">
    <!-- Generator: Sketch 59 (86127) - https://sketch.com -->
    <title>Icon_DataSync_active</title>
    <desc>Created with Sketch.</desc>
    <g id="Deploy" stroke="none" stroke-width="1" fill="none" fill-rule="evenodd">
        <path d="M1.77635684e-15,10.0140252 C1.77635684e-15,4.48807854 4.48807854,1.77635684e-15 10.0140252,1.77635684e-15 C15.5399719,1.77635684e-15 20,4.48807854 20,10.0140252 C20,15.5399719 15.5399719,20 10.0140252,20 C4.48807854,20 1.77635684e-15,15.5399719 1.77635684e-15,10.0140252 Z M8.35904628,8.41514727 L6.84431978,6.92847125 C6.73211781,6.78821879 6.53576438,6.70406732 6.33941094,6.70406732 C6.1430575,6.70406732 5.94670407,6.78821879 5.8345021,6.92847125 L4.3197756,8.41514727 C4.20757363,8.55539972 4.12342216,8.72370266 4.12342216,8.9200561 C4.12342216,9.31276297 4.43197756,9.64936886 4.82468443,9.64936886 L5.63814867,9.64936886 L5.63814867,12.5946704 C5.63814867,14.5582048 7.23702665,16.1570827 9.20056101,16.1570827 L10.799439,16.1570827 C11.1921459,16.1570827 11.5287518,15.8485273 11.5287518,15.4558205 C11.5287518,15.0631136 11.1921459,14.7265077 10.799439,14.7265077 L9.20056101,14.7265077 C8.02244039,14.7265077 7.0687237,13.772791 7.0687237,12.5946704 L7.0687237,9.64936886 L7.85413745,9.64936886 C8.05049088,9.64936886 8.21879383,9.56521739 8.35904628,9.42496494 C8.63955119,9.14446003 8.63955119,8.69565217 8.35904628,8.41514727 Z M9.20056101,5.27349229 C8.80785414,5.27349229 8.47124825,4.9368864 8.47124825,4.54417952 C8.47124825,4.15147265 8.80785414,3.84291725 9.20056101,3.84291725 L10.799439,3.84291725 C12.7629734,3.84291725 14.3899018,5.44179523 14.3899018,7.40532959 L14.3899018,10.3506311 L15.1753156,10.3506311 C15.5680224,10.3506311 15.9046283,10.687237 15.9046283,11.0799439 C15.9046283,11.2762973 15.8204769,11.4726508 15.6802244,11.5848527 L14.1654979,13.0995792 C14.0532959,13.2398317 13.8569425,13.2959327 13.6605891,13.2959327 C13.4642356,13.2959327 13.2959327,13.2398317 13.1556802,13.0995792 L11.6409537,11.5848527 C11.3604488,11.3043478 11.3604488,10.85554 11.6409537,10.5750351 C11.7812062,10.4347826 11.9775596,10.3506311 12.1458626,10.3506311 L12.9593268,10.3506311 L12.9593268,7.40532959 C12.9593268,6.22720898 11.9775596,5.27349229 10.799439,5.27349229 L9.20056101,5.27349229 Z" id="Icon_DataSync_active" fill="#515151"></path>
    </g>
</svg>