<?xml version="1.0" encoding="UTF-8" standalone="no"?>
<svg
   xmlns:dc="http://purl.org/dc/elements/1.1/"
   xmlns:cc="http://creativecommons.org/ns#"
   xmlns:rdf="http://www.w3.org/1999/02/22-rdf-syntax-ns#"
   xmlns:svg="http://www.w3.org/2000/svg"
   xmlns="http://www.w3.org/2000/svg"
   xmlns:sodipodi="http://sodipodi.sourceforge.net/DTD/sodipodi-0.dtd"
   xmlns:inkscape="http://www.inkscape.org/namespaces/inkscape"
   width="20px"
   height="20px"
   viewBox="0 0 20 20"
   version="1.1"
   id="svg10"
   sodipodi:docname="Icon_DataSync_inactive.svg"
   inkscape:export-filename="/Users/computer/Fieldkit/design/01_SVG/Icon_DataSync_inactive.png"
   inkscape:export-xdpi="1625.6"
   inkscape:export-ydpi="1625.6"
   inkscape:version="0.92.2 5c3e80d, 2017-08-06">
  <metadata
     id="metadata16">
    <rdf:RDF>
      <cc:Work
         rdf:about="">
        <dc:format>image/svg+xml</dc:format>
        <dc:type
           rdf:resource="http://purl.org/dc/dcmitype/StillImage" />
      </cc:Work>
    </rdf:RDF>
  </metadata>
  <defs
     id="defs14" />
  <sodipodi:namedview
     pagecolor="#ffffff"
     bordercolor="#666666"
     borderopacity="1"
     objecttolerance="10"
     gridtolerance="10"
     guidetolerance="10"
     inkscape:pageopacity="0"
     inkscape:pageshadow="2"
     inkscape:window-width="740"
     inkscape:window-height="480"
     id="namedview12"
     showgrid="false"
     inkscape:zoom="11.8"
     inkscape:cx="10"
     inkscape:cy="10"
     inkscape:window-x="0"
     inkscape:window-y="0"
     inkscape:window-maximized="0"
     inkscape:current-layer="svg10" />
  <!-- Generator: Sketch 61.2 (89653) - https://sketch.com -->
  <title
     id="title2">Icon_DataSync_inactive</title>
  <desc
     id="desc4">Created with Sketch.</desc>
  <g
     id="UI_Settings"
     stroke="none"
     stroke-width="1"
     fill="none"
     fill-rule="evenodd">
    <g
       id="01_UI_Mobile_Settings"
       transform="translate(-170.000000, -595.000000)"
       fill="#9A9FA6">
      <g
         id="StickyBottomNav"
         transform="translate(0.000000, 585.000000)">
        <path
           d="M170,20.0140252 C170,14.4880785 174.488079,10 180.014025,10 C185.539972,10 190,14.4880785 190,20.0140252 C190,25.5399719 185.539972,30 180.014025,30 C174.488079,30 170,25.5399719 170,20.0140252 Z M178.359046,18.4151473 L176.84432,16.9284712 C176.732118,16.7882188 176.535764,16.7040673 176.339411,16.7040673 C176.143058,16.7040673 175.946704,16.7882188 175.834502,16.9284712 L174.319776,18.4151473 C174.207574,18.5553997 174.123422,18.7237027 174.123422,18.9200561 C174.123422,19.312763 174.431978,19.6493689 174.824684,19.6493689 L175.638149,19.6493689 L175.638149,22.5946704 C175.638149,24.5582048 177.237027,26.1570827 179.200561,26.1570827 L180.799439,26.1570827 C181.192146,26.1570827 181.528752,25.8485273 181.528752,25.4558205 C181.528752,25.0631136 181.192146,24.7265077 180.799439,24.7265077 L179.200561,24.7265077 C178.02244,24.7265077 177.068724,23.772791 177.068724,22.5946704 L177.068724,19.6493689 L177.854137,19.6493689 C178.050491,19.6493689 178.218794,19.5652174 178.359046,19.4249649 C178.639551,19.14446 178.639551,18.6956522 178.359046,18.4151473 Z M179.200561,15.2734923 C178.807854,15.2734923 178.471248,14.9368864 178.471248,14.5441795 C178.471248,14.1514727 178.807854,13.8429173 179.200561,13.8429173 L180.799439,13.8429173 C182.762973,13.8429173 184.389902,15.4417952 184.389902,17.4053296 L184.389902,20.3506311 L185.175316,20.3506311 C185.568022,20.3506311 185.904628,20.687237 185.904628,21.0799439 C185.904628,21.2762973 185.820477,21.4726508 185.680224,21.5848527 L184.165498,23.0995792 C184.053296,23.2398317 183.856942,23.2959327 183.660589,23.2959327 C183.464236,23.2959327 183.295933,23.2398317 183.15568,23.0995792 L181.640954,21.5848527 C181.360449,21.3043478 181.360449,20.85554 181.640954,20.5750351 C181.781206,20.4347826 181.97756,20.3506311 182.145863,20.3506311 L182.959327,20.3506311 L182.959327,17.4053296 C182.959327,16.227209 181.97756,15.2734923 180.799439,15.2734923 L179.200561,15.2734923 Z"
           id="Icon_DataSync_inactive" />
      </g>
    </g>
  </g>
</svg>
