<?xml version="1.0" encoding="UTF-8"?>
<svg width="17px" height="25px" viewBox="0 0 17 25" version="1.1" xmlns="http://www.w3.org/2000/svg" xmlns:xlink="http://www.w3.org/1999/xlink">
    <!-- Generator: Sketch 59 (86127) - https://sketch.com -->
    <title>Icon_not_Connected</title>
    <desc>Created with Sketch.</desc>
    <g id="Data_Transfer" stroke="none" stroke-width="1" fill="none" fill-rule="evenodd">
        <g id="23_Mobile_DataFiles" transform="translate(-176.000000, -128.000000)" fill="#C2C2C2">
            <g id="Group-6" transform="translate(176.430357, 124.000000)">
                <g id="Icon_not_Connected" transform="translate(0.000000, 3.467857)">
                    <path d="M19.2846939,5 L-2.47015306,5 C-3.31479592,5 -4,5.82244898 -4,6.83520408 L-4,19.2293367 C-4,20.2433673 -3.31479592,21.0642857 -2.47015306,21.0642857 L19.2846939,21.0642857 C20.1278061,21.0642857 20.8127551,20.2431122 20.8127551,19.2293367 L20.8127551,6.83520408 C20.8127551,5.82244898 20.127551,5 19.2846939,5 Z M14.5252551,17.7007653 C14.5252551,18.4635204 14.0109694,19.0834184 13.3732143,19.0834184 L-0.807908163,19.0834184 C-1.44387755,19.0834184 -1.96096939,18.4635204 -1.96096939,17.7007653 L-1.96096939,8.36377551 C-1.96096939,7.5994898 -1.44413265,6.98137755 -0.807908163,6.98137755 L13.3732143,6.98137755 C14.0109694,6.98137755 14.5252551,7.5994898 14.5252551,8.36377551 L14.5252551,17.7007653 Z M17.6788265,15.3321429 C16.6119898,15.3321429 15.7482143,14.4665816 15.7482143,13.4002551 C15.7482143,12.3339286 16.6122449,11.4696429 17.6788265,11.4696429 C18.7451531,11.4696429 19.6094388,12.3336735 19.6094388,13.4002551 C19.6094388,14.4668367 18.744898,15.3321429 17.6788265,15.3321429 Z" id="Shape" fill-rule="nonzero" transform="translate(8.406378, 13.032143) rotate(90.000000) translate(-8.406378, -13.032143) "></path>
                    <path d="M5.36063782,7.24290048 L5.49709255,7.10644574 C5.88761684,6.71592145 6.52078182,6.71592145 6.91130611,7.10644574 L8.44464286,8.63978249 L8.44464286,8.63978249 L9.9779796,7.10644574 C10.3685039,6.71592145 11.0016689,6.71592145 11.3921932,7.10644574 L11.5333427,7.24759526 C11.923867,7.63811955 11.923867,8.27128453 11.5333427,8.66180882 L9.83948023,10.3556713 L9.83948023,10.3556713 L11.5333427,12.0495337 C11.923867,12.440058 11.923867,13.073223 11.5333427,13.4637473 L11.4303547,13.5667353 C11.0466452,13.9504447 10.4269354,13.9581114 10.0338508,13.5840121 L8.44464286,12.07156 L8.44464286,12.07156 L6.89848008,13.5794604 C6.51164263,13.9567249 5.89507669,13.9584565 5.50612622,13.5833709 L5.37823275,13.4600364 C4.98068714,13.076662 4.96919911,12.4436012 5.35257352,12.0460556 C5.35563152,12.0428846 5.35871044,12.0397338 5.36181008,12.0366034 L7.05370298,10.3279495 L7.05370298,10.3279495 L5.36533249,8.66177775 C4.9722325,8.27384626 4.96804261,7.64069514 5.3559741,7.24759515 C5.35752349,7.24602512 5.35907807,7.24446022 5.36063782,7.24290048 Z" id="Path-7-Copy" transform="translate(8.444643, 10.327949) rotate(90.000000) translate(-8.444643, -10.327949) "></path>
                </g>
            </g>
        </g>
    </g>
</svg>